<svg xmlns="http://www.w3.org/2000/svg" viewBox="0 0 16 16" fill="#000000" id="Read-Cv-Logo-Thin--Streamline-Phosphor-Thin" height="16" width="16"><desc>Read Cv Logo Thin Streamline Icon: https://streamlinehq.com</desc><path d="M13.95901875 1.84295 4.50400625 0.17335c-0.47390625 -0.08393125 -0.92608125 0.2323625 -1.00974375 0.70631875L1.33466875 13.1475875c-0.0834875 0.47365625 0.23269375 0.92534375 0.7063125 1.00901875l9.4557375 1.6696c0.05053125 0.00926875 0.1018 0.0138875 0.15316875 0.01379375 0.42206875 -0.001 0.78269375 -0.30443125 0.85585 -0.72010625l2.15959375 -12.267925c0.0834875 -0.47365 -0.23269375 -0.9253375 -0.7063125 -1.00901875Zm0.13429375 0.90811875 -2.15959375 12.267925c-0.0276625 0.15795625 -0.1781375 0.26358125 -0.33609375 0.23591875L2.1418875 13.5853125c-0.15766875 -0.0280125 -0.2628875 -0.178375 -0.2352 -0.33609375L4.06628125 0.98129375c0.0276625 -0.15795625 0.1781375 -0.26358125 0.33609375 -0.23591875l9.4557375 1.66959375c0.1576625 0.0280125 0.2628875 0.17838125 0.2352 0.3361Zm-2.0180375 1.41335c-0.02459375 0.13836875 -0.14475 0.2392625 -0.2852875 0.23955 -0.01703125 -0.00000625 -0.034025 -0.0014625 -0.0508125 -0.00435L5.7141 3.335425c-0.22016875 -0.03883125 -0.31573125 -0.30145 -0.1720125 -0.47270625 0.0667 -0.079475 0.17073125 -0.1173375 0.2729125 -0.0993125l6.025075 1.0641875c0.158 0.02800625 0.26333125 0.17885 0.2352 0.336825Zm-0.40215625 2.28735c-0.02433125 0.138925 -0.144975 0.240275 -0.2860125 0.24028125 -0.01706875 0.00006875 -0.03409375 -0.00163125 -0.0508125 -0.00508125L5.314125 5.62350625c-0.220175 -0.0388375 -0.3157375 -0.30145625 -0.17201875 -0.47270625 0.0667 -0.07948125 0.1707375 -0.1173375 0.27291875 -0.0993125l6.025075 1.0641875c0.15678125 0.02905 0.2608 0.1790875 0.23301875 0.33609375Zm-3.4117875 1.7559875c-0.02464375 0.13863125 -0.14520625 0.23960625 -0.2860125 0.23955 -0.01703125 -0.00004375 -0.034025 -0.0015 -0.0508125 -0.00435625l-3.0118125 -0.53209375c-0.22165 -0.02888125 -0.32891875 -0.28686875 -0.19308125 -0.4643875 0.06878125 -0.0898875 0.183525 -0.1316125 0.29398125 -0.10690625l3.0118125 0.53136875c0.1571125 0.02904375 0.26124375 0.1795625 0.23301875 0.336825Z" stroke-width="0.0625"></path></svg>